HIERARCHY
ROOT Hips
{
	OFFSET 0.000000 0.000000 0.000000
	CHANNELS 6 Xposition Yposition Zposition Xrotation Yrotation Zrotation
	JOINT LeftUpLeg_virtual
	{
		OFFSET 0.000000 0.000000 0.000000
		CHANNELS 3 Xrotation Yrotation Zrotation
		JOINT LeftUpLeg
		{
			OFFSET 10.205400 -3.823500 0.155100
			CHANNELS 3 Xrotation Yrotation Zrotation
			JOINT LeftLeg
			{
				OFFSET 0.708757 -12.982077 0.567790
				CHANNELS 3 Xrotation Yrotation Zrotation
				JOINT LeftFoot
				{
					OFFSET -0.708756 -10.717838 -2.184338
					CHANNELS 3 Xrotation Yrotation Zrotation
					JOINT LeftToeBase
					{
						OFFSET 0.108149 -7.191104 7.560241
						CHANNELS 3 Xrotation Yrotation Zrotation
						JOINT LeftToe_End
						{
							OFFSET 0.070230 0.081724 4.490308
							CHANNELS 3 Xrotation Yrotation Zrotation
							End Site
							{
								OFFSET 0 0 0
							}
						}
					}
				}
			}
		}
	}
	JOINT RightUpLeg_virtual
	{
		OFFSET 0.000000 0.000000 0.000000
		CHANNELS 3 Xrotation Yrotation Zrotation
		JOINT RightUpLeg
		{
			OFFSET -10.205400 -3.823500 0.005500
			CHANNELS 3 Xrotation Yrotation Zrotation
			JOINT RightLeg
			{
				OFFSET -0.708756 -12.982134 0.610632
				CHANNELS 3 Xrotation Yrotation Zrotation
				JOINT RightFoot
				{
					OFFSET 0.708754 -10.717769 -1.945823
					CHANNELS 3 Xrotation Yrotation Zrotation
					JOINT RightToeBase
					{
						OFFSET -0.108140 -7.191069 7.372968
						CHANNELS 3 Xrotation Yrotation Zrotation
						JOINT RightToe_End
						{
							OFFSET -0.070227 0.081735 4.479403
							CHANNELS 3 Xrotation Yrotation Zrotation
							End Site
							{
								OFFSET 0 0 0
							}
						}
					}
				}
			}
		}
	}
	JOINT Spine_virtual
	{
		OFFSET 0.000000 0.000000 0.000000
		CHANNELS 3 Xrotation Yrotation Zrotation
		JOINT Spine
		{
			OFFSET 0.000000 6.876099 0.125700
			CHANNELS 3 Xrotation Yrotation Zrotation
			JOINT Spine1
			{
				OFFSET 0.000000 5.730043 0.104720
				CHANNELS 3 Xrotation Yrotation Zrotation
				JOINT Spine1_split
				{
					OFFSET 0.000000 5.730043 0.104720
					CHANNELS 3 Xrotation Yrotation Zrotation
					JOINT Spine2
					{
						OFFSET 0.000000 5.730043 0.104720
						CHANNELS 3 Xrotation Yrotation Zrotation
						JOINT Neck_virtual
						{
							OFFSET 0.000000 0.000000 0.000000
							CHANNELS 3 Xrotation Yrotation Zrotation
							JOINT Neck
							{
								OFFSET 0.000000 10.314075 0.188496
								CHANNELS 3 Xrotation Yrotation Zrotation
								JOINT Head
								{
									OFFSET 0.000000 7.643700 -2.377400
									CHANNELS 3 Xrotation Yrotation Zrotation
									JOINT HeadTop_End
									{
										OFFSET 0.000000 43.788605 -13.619600
										CHANNELS 3 Xrotation Yrotation Zrotation
										End Site
										{
											OFFSET 0 0 0
										}
									}
								}
							}
						}
						JOINT LeftShoulder_virtual
						{
							OFFSET 0.000000 0.000000 0.000000
							CHANNELS 3 Xrotation Yrotation Zrotation
							JOINT LeftShoulder
							{
								OFFSET 2.196100 4.412489 0.087492
								CHANNELS 3 Xrotation Yrotation Zrotation
								JOINT LeftShoulder_split
								{
									OFFSET 2.196100 4.412489 0.087492
									CHANNELS 3 Xrotation Yrotation Zrotation
									JOINT LeftArm
									{
										OFFSET 8.771219 -2.981674 -0.026999
										CHANNELS 3 Xrotation Yrotation Zrotation
										JOINT LeftForeArm
										{
											OFFSET 8.512804 0.000000 -0.000000
											CHANNELS 3 Xrotation Yrotation Zrotation
											JOINT LeftHand
											{
												OFFSET 18.484802 0.000000 -0.000000
												CHANNELS 3 Xrotation Yrotation Zrotation
												End Site
												{
													OFFSET 0 0 0
												}
											}
										}
									}
								}
							}
						}
						JOINT RightShoulder_virtual
						{
							OFFSET 0.000000 0.000000 0.000000
							CHANNELS 3 Xrotation Yrotation Zrotation
							JOINT RightShoulder
							{
								OFFSET -2.196100 4.412496 0.070690
								CHANNELS 3 Xrotation Yrotation Zrotation
								JOINT RightShoulder_split
								{
									OFFSET -2.196100 4.412496 0.070690
									CHANNELS 3 Xrotation Yrotation Zrotation
									JOINT RightArm
									{
										OFFSET -8.771282 -2.981682 -0.094208
										CHANNELS 3 Xrotation Yrotation Zrotation
										JOINT RightForeArm
										{
											OFFSET -8.494598 0.000000 0.000000
											CHANNELS 3 Xrotation Yrotation Zrotation
											JOINT RightHand
											{
												OFFSET -18.483803 0.000000 0.000001
												CHANNELS 3 Xrotation Yrotation Zrotation
												End Site
												{
													OFFSET 0 0 0
												}
											}
										}
									}
								}
							}
						}
					}
				}
			}
		}
	}
}
MOTION
Frames: 9
Frame Time: 0.03333333
-0.117010 27.311035 -1.956953 0.000000 0.000000 0.000000 -1.215774 -49.079564 2.980740 -36.589726 9.911459 27.372750 63.597449 -15.199285 2.371387 -24.863422 -0.256349 -17.203238 -2.572541 -1.781013 -0.813856 0.000000 0.000000 0.000000 -2.087116 -46.766742 2.817850 -21.210794 -11.415836 -32.358117 62.319254 13.903301 -5.328336 -37.762316 -32.557893 41.809886 3.020898 8.882203 -16.193743 0.000000 0.000000 0.000000 -5.825940 -43.088651 0.010861 3.871414 4.896445 -1.124194 3.727390 -0.381526 -1.246776 0.165129 -0.137043 0.092148 0.000000 0.000000 0.000000 6.124328 0.891945 0.042435 4.912238 14.346435 3.879075 -9.229945 1.858096 -23.640634 0.000000 0.000000 0.000000 6.173705 -0.740165 -1.588202 2.597176 6.109155 -3.237566 2.796538 -6.963126 0.680049 -61.913213 9.373406 -39.734246 170.781749 -64.113394 167.589551 0.000000 0.000000 0.000000 6.501967 -0.545977 -0.420357 -6.311983 12.106133 -6.224108 -3.741874 -5.990128 3.234670 -49.440779 23.679595 91.422854 -150.755922 72.183099 150.751509 0.000000 0.000000 0.000000 
-0.093942 27.308386 -1.972265 0.000000 0.000000 0.000000 -1.098078 -49.114360 3.235320 -36.392351 10.147973 26.884651 63.133856 -15.387428 2.229093 -24.860495 -0.148052 -16.808838 -2.655326 -1.899234 -0.596367 0.000000 0.000000 0.000000 -2.180018 -46.905733 2.978352 -21.610567 -11.704570 -32.689128 62.595535 14.080063 -4.915095 -37.952458 -32.750200 41.184521 3.349312 8.854857 -16.266799 0.000000 0.000000 0.000000 -5.572528 -43.536910 0.273319 3.923182 5.092243 -1.335092 3.746122 -0.339759 -0.993138 0.265522 -0.059095 0.184206 0.000000 0.000000 0.000000 6.139732 1.015465 0.086252 4.764362 14.327519 3.784441 -10.264202 1.942299 -23.410576 0.000000 0.000000 0.000000 6.374866 -0.673470 -1.260178 2.483200 5.388993 -3.562349 3.563841 -6.327584 2.128261 -61.659362 11.055418 -40.717053 166.037077 -64.982550 163.037982 0.000000 0.000000 0.000000 6.590334 -0.425119 -0.232295 -6.225972 12.483670 -6.716697 -3.290984 -4.945892 1.851746 -50.437832 23.888585 91.217224 -152.547234 71.548110 152.558395 0.000000 0.000000 0.000000 
-0.032558 27.327116 -1.937823 0.000000 0.000000 0.000000 -0.890407 -49.486592 3.697664 -35.832053 10.396356 26.202988 62.618525 -15.811492 2.326845 -25.063125 -0.021244 -16.595562 -2.782502 -2.048310 -0.523148 0.000000 0.000000 0.000000 -1.974669 -47.438778 3.371957 -21.939203 -11.532785 -32.806457 62.645027 14.436619 -4.795364 -37.688465 -32.656405 40.712832 2.800130 8.811874 -16.226929 0.000000 0.000000 0.000000 -5.005672 -44.275001 0.902387 3.827201 5.453992 -1.657209 3.731131 -0.204809 -0.673946 0.233603 -0.111137 0.167824 0.000000 0.000000 0.000000 6.183094 1.324450 0.275942 4.456771 14.484832 3.381033 -10.810523 2.373810 -23.114292 0.000000 0.000000 0.000000 6.738606 -0.430615 -0.757977 2.106426 4.639040 -3.187285 4.444333 -4.498857 3.598019 -62.511681 13.568256 -42.300950 162.524993 -64.671783 159.700478 0.000000 0.000000 0.000000 6.446947 -0.147247 0.033389 -5.895195 13.020911 -7.207604 -2.973305 -4.639973 1.148724 -51.580468 24.506951 90.998371 -154.237488 71.177278 154.217311 0.000000 0.000000 0.000000 
0.030087 27.372658 -1.833126 0.000000 0.000000 0.000000 -0.535366 -50.128490 4.280822 -34.903035 10.780835 25.457995 62.045582 -16.205338 2.455282 -25.622753 0.329765 -16.289578 -2.839309 -2.201447 -0.587489 0.000000 0.000000 0.000000 -1.384713 -48.294826 3.945967 -22.106227 -10.854399 -32.596207 62.264045 14.870754 -5.057998 -37.615416 -32.250733 39.640342 1.970055 8.663671 -16.070469 0.000000 0.000000 0.000000 -4.126443 -45.371328 1.847361 3.500715 5.879463 -1.954827 3.567296 0.022135 -0.441488 0.105567 -0.198355 0.109561 0.000000 0.000000 0.000000 6.193002 1.742404 0.500199 4.101657 14.780849 2.764731 -10.482907 3.675120 -22.809039 0.000000 0.000000 0.000000 6.999256 -0.038564 -0.262658 1.692277 4.290188 -2.038691 5.715803 -2.741001 3.937043 -63.745104 15.651749 -44.278621 161.681875 -63.818999 158.774441 0.000000 0.000000 0.000000 6.083153 0.200767 0.197262 -5.472545 13.619145 -7.593888 -2.548773 -4.802899 1.386345 -52.644390 25.483584 90.851952 -155.604222 71.177948 155.516400 0.000000 0.000000 0.000000 
0.060876 27.468512 -1.686018 0.000000 0.000000 0.000000 0.043894 -51.255051 4.912997 -33.565530 11.330987 24.817373 61.503873 -16.384048 2.490474 -26.469855 1.196624 -15.767152 -2.634966 -2.298937 -0.757325 0.000000 0.000000 0.000000 -0.360651 -49.493357 4.705525 -22.409219 -9.591039 -32.190443 61.403797 15.368479 -5.601579 -37.724419 -31.384576 37.854128 1.859058 8.315962 -15.939312 0.000000 0.000000 0.000000 -2.957565 -46.871596 2.970306 2.981168 6.240727 -2.093353 3.129821 0.287721 -0.440159 -0.054505 -0.213516 0.006757 0.000000 0.000000 0.000000 6.060292 2.170109 0.588214 3.904114 15.185618 2.006485 -9.296540 5.890067 -22.487957 0.000000 0.000000 0.000000 7.001937 0.412275 0.054137 1.337452 4.584449 -0.393168 5.565276 -3.051668 3.073785 -63.791754 17.360094 -45.235137 162.820331 -62.239259 159.735585 0.000000 0.000000 0.000000 5.556647 0.511109 0.182429 -5.047787 14.098870 -7.876834 -2.190077 -5.723594 1.931906 -53.774199 26.825267 90.860695 -156.536488 71.655665 156.360884 0.000000 0.000000 0.000000 
0.051641 27.635015 -1.509628 0.000000 0.000000 0.000000 0.846344 -52.974380 5.542757 -31.541042 12.196752 24.301647 60.872360 -16.123056 2.307313 -27.800487 2.749297 -14.607536 -2.114370 -2.336522 -1.014659 0.000000 0.000000 0.000000 0.840048 -51.209367 5.468994 -23.360948 -7.983496 -31.787700 60.153230 16.000393 -6.125195 -37.079379 -29.917198 36.172935 2.629772 7.806455 -15.993585 0.000000 0.000000 0.000000 -1.700579 -48.771294 4.006165 2.484287 6.367389 -1.967685 2.345402 0.505244 -0.702899 -0.107069 -0.224238 -0.063355 0.000000 0.000000 0.000000 5.649284 2.494552 0.490495 3.998075 15.665894 1.214081 -7.470598 8.809441 -22.245470 0.000000 0.000000 0.000000 6.713716 0.783746 0.149781 1.119633 5.540620 1.534372 4.230271 -4.863338 2.205074 -62.677163 17.960442 -44.711364 164.357369 -60.480669 161.022079 0.000000 0.000000 0.000000 5.026034 0.716084 -0.015227 -4.716720 14.289611 -8.098515 -2.084296 -7.084659 2.290478 -55.165922 28.508660 91.164229 -157.035475 72.558179 156.816226 0.000000 0.000000 0.000000 
0.029165 27.857063 -1.327894 0.000000 0.000000 0.000000 1.735707 -55.287991 6.079694 -28.835317 13.478529 23.899843 60.047028 -15.319926 1.882362 -29.698598 4.839478 -12.575254 -1.489613 -2.341553 -1.309770 0.000000 0.000000 0.000000 1.945874 -53.466116 6.114793 -25.040556 -6.443314 -31.547797 58.569835 16.973510 -6.472590 -35.043218 -27.871190 35.692035 3.574538 7.310619 -16.490705 0.000000 0.000000 0.000000 -0.579708 -50.808360 4.646741 2.167498 6.262287 -1.572409 1.454888 0.595436 -1.082214 -0.023812 -0.219605 0.014344 0.000000 0.000000 0.000000 4.964279 2.595489 0.287947 4.129282 16.224192 0.562725 -5.549010 12.199120 -22.081648 0.000000 0.000000 0.000000 6.193113 0.934578 0.110140 0.887394 6.727505 3.382548 2.728921 -6.866545 0.929083 -61.734009 16.688649 -42.666778 163.988293 -59.743432 160.451444 0.000000 0.000000 0.000000 4.575141 0.736808 -0.284700 -4.511436 14.120927 -8.242779 -1.879965 -8.318948 2.623339 -57.115883 30.446480 91.562702 -157.544242 73.475958 157.377763 0.000000 0.000000 0.000000 
0.020581 28.105276 -1.146404 0.000000 0.000000 0.000000 2.407947 -57.901863 6.384352 -25.867963 15.029686 23.633303 59.139241 -14.330946 1.437726 -31.542251 7.033982 -10.424808 -1.246378 -2.325556 -1.567170 0.000000 0.000000 0.000000 2.834064 -56.001425 6.593613 -27.057441 -5.351654 -31.438900 56.690437 18.231482 -6.613472 -31.991711 -25.503240 36.568184 4.164444 6.978740 -17.523050 0.000000 0.000000 0.000000 0.083878 -52.896315 4.657506 2.264437 5.888951 -1.037084 0.683059 0.451653 -1.385509 0.099414 -0.300299 0.112452 0.000000 0.000000 0.000000 4.154174 2.390013 0.087013 4.057829 16.813146 0.110949 -4.109161 15.701179 -22.005010 0.000000 0.000000 0.000000 5.747708 0.770698 0.064115 0.673496 7.753073 4.878043 1.449022 -8.058260 -0.595004 -61.888911 13.070638 -38.428915 158.604984 -63.095662 155.093037 0.000000 0.000000 0.000000 4.119483 0.500273 -0.431997 -4.356274 13.519710 -8.336415 -1.766335 -9.156987 2.909244 -59.630181 32.319868 91.869036 -158.566776 74.054099 158.539127 0.000000 0.000000 0.000000 
0.058655 28.326689 -0.977098 0.000000 0.000000 0.000000 2.661283 -60.296391 6.370293 -23.132247 16.726035 23.381524 58.182072 -13.509549 1.074144 -32.893102 8.915087 -8.746364 -1.600115 -2.320746 -1.792499 0.000000 0.000000 0.000000 3.154567 -58.367907 6.663400 -28.873966 -4.951058 -31.426851 54.745612 19.390207 -6.620788 -28.869420 -23.235445 37.838562 4.624798 6.827496 -18.921610 0.000000 0.000000 0.000000 0.055246 -54.856425 3.951523 2.803080 5.330574 -0.518549 0.265503 0.085162 -1.462104 0.165464 -0.424914 0.199666 0.000000 0.000000 0.000000 3.448706 1.944454 0.036085 3.663634 17.345038 -0.213466 -3.517133 19.074507 -21.990648 0.000000 0.000000 0.000000 5.623969 0.299293 0.147509 0.585461 8.092133 6.414449 0.611028 -7.469702 -1.010115 -62.875744 6.589615 -32.819336 133.924109 -72.862375 130.352425 0.000000 0.000000 0.000000 3.703629 0.055436 -0.355918 -4.274398 12.604289 -8.378346 -1.863543 -9.173560 3.322563 -62.025945 33.824968 91.680304 -160.164767 74.064946 160.318105 0.000000 0.000000 0.000000 
